<svg width="22" height="16" viewBox="0 0 22 16" fill="none" xmlns="http://www.w3.org/2000/svg">
<path d="M1.13232 0.00538887C0.780141 0.0617372 0.464773 0.255679 0.255591 0.54455C0.0464082 0.833421 -0.0394531 1.19356 0.0168952 1.54573C0.0732435 1.89791 0.267186 2.21328 0.556056 2.42246C0.844927 2.63164 1.20506 2.71751 1.55724 2.66116H5.54089L5.77991 3.3251L6.86878 6.64481L7.95764 9.96452C8.06387 10.3098 8.51535 10.6285 8.8606 10.6285H18.1558C18.5276 10.6285 18.9525 10.3098 19.0588 9.96452L21.2099 3.3251C21.3162 2.97985 21.1568 2.66116 20.785 2.66116H8.99339L7.9842 0.749004C7.87671 0.52953 7.71074 0.343974 7.50457 0.212771C7.29839 0.0815683 7.06001 0.00980677 6.81566 0.00538887L1.50413 0.00538887C1.42461 -0.00179629 1.34462 -0.00179629 1.26511 0.00538887C1.21204 0.00219907 1.15883 0.00219907 1.10576 0.00538887L1.13232 0.00538887ZM9.52455 13.2842C8.78093 13.2842 8.19666 13.8685 8.19666 14.6121C8.19666 15.3557 8.78093 15.94 9.52455 15.94C10.2682 15.94 10.8524 15.3557 10.8524 14.6121C10.8524 13.8685 10.2682 13.2842 9.52455 13.2842ZM17.4919 13.2842C16.7482 13.2842 16.164 13.8685 16.164 14.6121C16.164 15.3557 16.7482 15.94 17.4919 15.94C18.2355 15.94 18.8197 15.3557 18.8197 14.6121C18.8197 13.8685 18.2355 13.2842 17.4919 13.2842Z" fill="white"/>
</svg>
