<svg width="16" height="16" viewBox="0 0 16 16" fill="none" xmlns="http://www.w3.org/2000/svg">
<path d="M6.91118 0.0197462C3.10016 0.0197462 0 3.1199 0 6.93093C0 10.7419 3.10016 13.8421 6.91118 13.8421C8.07621 13.8421 9.22149 13.5657 10.1891 13.0325C10.2666 13.1258 10.3525 13.2117 10.4458 13.2892L12.4204 15.2638C12.6027 15.469 12.825 15.6347 13.0737 15.7509C13.3224 15.867 13.5923 15.9311 13.8666 15.9391C14.141 15.9472 14.4141 15.8991 14.6692 15.7978C14.9243 15.6965 15.156 15.5442 15.3501 15.3501C15.5442 15.156 15.6965 14.9243 15.7978 14.6692C15.8991 14.4141 15.9472 14.141 15.9391 13.8666C15.931 13.5923 15.867 13.3225 15.7509 13.0738C15.6347 12.8251 15.469 12.6027 15.2638 12.4204L13.2892 10.4458C13.193 10.3495 13.0871 10.2635 12.9733 10.1891C13.5064 9.22149 13.8421 8.09595 13.8421 6.91118C13.8421 3.10016 10.7419 0 6.93093 0L6.91118 0.0197462ZM6.91118 1.99437C9.65591 1.99437 11.8477 4.1862 11.8477 6.93093C11.8477 8.23418 11.3738 9.4387 10.5445 10.3273C10.5247 10.347 10.505 10.3668 10.4852 10.3865C10.392 10.464 10.306 10.55 10.2285 10.6432C9.35971 11.4331 8.17494 11.8872 6.89143 11.8872C4.14671 11.8872 1.95488 9.6954 1.95488 6.95067C1.95488 4.20595 4.14671 2.01412 6.89143 2.01412L6.91118 1.99437Z" fill="white"/>
</svg>
